<!DOCTYPE svg PUBLIC "-//W3C//DTD SVG 20010904//EN" "http://www.w3.org/TR/2001/REC-SVG-20010904/DTD/svg10.dtd">
<svg version="1.0" xmlns="http://www.w3.org/2000/svg" width="863px" height="676px" viewBox="0 0 8630 6760" preserveAspectRatio="xMidYMid meet">
<g id="layer101" fill="#ffffff" stroke="none">
 <path d="M5725 6634 c-441 -35 -825 -130 -1095 -271 -304 -160 -551 -421 -674 -711 -45 -108 -99 -280 -111 -359 -4 -24 -10 -45 -15 -48 -4 -3 -52 15 -106 38 -55 24 -127 54 -161 67 -70 25 -71 27 -93 160 -5 36 -19 115 -30 175 -11 61 -31 178 -45 260 -30 177 -37 196 -82 235 l-34 30 -372 0 c-334 0 -376 -2 -407 -18 -51 -25 -75 -68 -94 -174 -9 -51 -24 -127 -32 -168 -8 -41 -23 -133 -34 -205 -34 -222 -43 -265 -54 -273 -6 -4 -42 -19 -81 -32 -38 -13 -122 -48 -185 -77 -137 -65 -97 -78 -368 115 -432 307 -408 294 -475 268 -33 -12 -102 -76 -299 -273 -141 -142 -262 -271 -267 -286 -18 -47 -13 -87 17 -131 16 -22 117 -165 225 -317 l197 -276 -54 -114 c-30 -63 -66 -151 -81 -197 -21 -62 -33 -86 -50 -92 -12 -4 -102 -22 -201 -39 -98 -17 -257 -44 -351 -60 -189 -32 -224 -47 -249 -107 -11 -26 -14 -111 -14 -406 0 -356 1 -374 20 -406 25 -41 59 -55 185 -76 55 -9 138 -23 185 -31 358 -59 421 -71 435 -87 6 -7 22 -42 35 -78 12 -36 47 -120 77 -187 31 -68 53 -128 50 -135 -5 -12 -135 -201 -256 -372 -154 -217 -173 -246 -178 -284 -3 -25 0 -49 10 -68 20 -37 496 -517 539 -544 63 -38 94 -28 229 70 46 34 95 69 109 78 14 9 108 77 210 149 102 73 190 133 197 133 7 0 52 -20 100 -44 48 -24 129 -58 178 -76 50 -19 95 -37 102 -42 6 -5 19 -53 27 -106 9 -53 22 -122 28 -152 6 -30 14 -82 19 -115 37 -267 62 -381 90 -412 48 -51 61 -53 444 -53 386 0 401 2 443 55 29 36 30 43 89 390 8 50 21 118 29 152 8 34 14 72 14 83 0 12 7 53 16 91 12 54 21 72 37 79 12 5 56 21 97 36 41 15 102 40 134 56 33 15 63 25 67 21 4 -5 19 -57 34 -117 55 -223 136 -415 246 -576 58 -85 234 -263 329 -332 150 -109 335 -198 541 -261 63 -19 128 -38 144 -41 17 -3 73 -15 125 -26 52 -11 167 -30 255 -43 159 -22 165 -22 1525 -22 l1365 0 47 23 c63 30 123 100 145 170 17 52 18 109 18 697 0 576 -2 646 -17 695 -22 72 -75 132 -146 167 l-57 28 -305 -5 c-168 -3 -582 -5 -920 -4 -623 0 -861 10 -951 38 -134 41 -218 106 -267 206 l-27 55 0 1230 0 1230 33 66 c45 93 108 145 224 183 99 33 209 36 1176 36 640 0 986 4 1027 11 78 13 131 43 171 96 64 83 64 84 65 779 1 562 0 635 -15 686 -24 79 -88 150 -162 177 -54 21 -65 21 -1352 19 -713 -1 -1315 -3 -1337 -4z m-2618 -706 c13 -16 27 -79 53 -243 36 -222 82 -449 96 -477 21 -40 43 -51 194 -101 144 -48 295 -113 322 -140 15 -15 16 -69 17 -577 0 -308 -4 -560 -8 -560 -5 0 -12 7 -15 16 -16 41 -88 137 -161 213 -147 154 -299 238 -519 286 -107 24 -316 17 -431 -15 -323 -88 -585 -319 -695 -613 -48 -128 -62 -206 -61 -352 1 -245 62 -427 206 -615 50 -65 154 -165 218 -209 80 -55 225 -121 324 -148 86 -23 116 -26 248 -26 192 1 305 28 463 113 139 75 283 208 376 346 l45 67 3 -559 c2 -308 -1 -564 -5 -571 -16 -22 -190 -101 -307 -138 -167 -54 -190 -65 -215 -105 -25 -38 -65 -228 -111 -525 -14 -93 -30 -180 -35 -192 -9 -23 -10 -23 -218 -23 -163 0 -211 3 -220 14 -13 15 -19 48 -61 311 -53 333 -63 379 -82 413 -20 33 -69 64 -123 76 -98 23 -296 107 -470 200 -63 33 -83 25 -258 -102 -238 -172 -405 -290 -427 -302 -20 -11 -31 -2 -137 102 -63 62 -133 134 -155 160 l-39 47 47 68 c165 237 277 397 318 456 72 103 72 110 -17 289 -43 87 -96 214 -122 293 -52 157 -63 178 -104 200 -35 18 -193 49 -436 86 -33 5 -105 16 -159 24 -54 8 -105 20 -112 26 -11 9 -14 57 -14 224 l0 213 43 10 c24 6 83 18 132 26 50 8 128 22 175 30 47 9 116 21 153 26 38 6 88 14 110 20 23 5 54 11 69 15 15 3 43 19 62 35 29 26 41 52 82 177 29 89 76 202 121 292 43 86 73 158 73 176 0 38 -8 51 -187 303 -220 310 -233 329 -233 337 0 4 66 74 147 156 147 149 169 164 202 135 55 -47 543 -382 572 -392 46 -16 52 -14 229 73 80 40 208 93 285 118 187 61 185 60 220 270 9 55 23 136 30 180 18 102 42 249 50 300 13 79 1 75 234 75 155 0 211 -3 218 -12z m-11 -1870 c117 -35 225 -99 316 -189 64 -64 84 -93 127 -180 79 -163 100 -314 66 -478 -61 -288 -271 -494 -578 -566 -175 -40 -415 21 -583 148 -245 185 -338 532 -225 836 34 90 82 162 166 246 105 106 204 160 355 197 102 24 246 18 356 -14z"/>
 </g>

</svg>